# xmcd
#
# Track frame offsets:
#	150
#	21645
#	41187
#	59750
#	78245
#	92187
#	114207
#	134047
#	151370
#	168050
#	183900
#	204617
#	224367
#
# Disc length: 3251 seconds
#
# Revision: 0
# Processed by: cddbd v1.4PL0 Copyright (c) Steve Scherf et al.
# Submitted via: dBpowerAMP V4.0
#
DISCID=bb0cb10d
DTITLE=Engelber Humperdink - Yours
DYEAR=1993
DGENRE=Ballad
TTITLE0=Angeles
TTITLE1=Yours
TTITLE2=Moonlight Angel
TTITLE3=Everywhere I Go
TTITLE4=We Will Get A Second Chance
TTITLE5=It's All Because Of You
TTITLE6=Mona Lisa
TTITLE7=My Special Inspiration
TTITLE8=You'll Never Know
TTITLE9=We Live To Love
TTITLE10=Somewhere In Time
TTITLE11=I Know That We Have Loved Before
TTITLE12=How I Love You
EXTD=
EXTT0=
EXTT1=
EXTT2=
EXTT3=
EXTT4=
EXTT5=
EXTT6=
EXTT7=
EXTT8=
EXTT9=
EXTT10=
EXTT11=
EXTT12=
PLAYORDER=
